# xmcd
#
# Track frame offsets: 
#        150
#        7584
#        25084
#        44160
#        60578
#        70133
#        92386
#        117874
#        141587
#        158503
#        184116
#
# Disc length: 2703 seconds
#
# Revision: 0
# Processed by: cddbd v1.5.2PL0 Copyright (c) Steve Scherf et al.
# Submitted via: ExactAudioCopyFreeDBPlugin 1.0
#
DISCID=860a8d0b
DTITLE=Mr. Foote - Harlemworks
DYEAR=2011
DGENRE=R&B
TTITLE0=Who Ya Introducin'
TTITLE1=Mr. Foote Live
TTITLE2=Let's Talk
TTITLE3=Do You Know
TTITLE4=Innerview
TTITLE5=New Funkfoyoass
TTITLE6=Two In The Morning
TTITLE7=I'd Rather Be By Myself
TTITLE8=So Into You
TTITLE9=Harlemworks
TTITLE10=Freedom
EXTD=
EXTT0=
EXTT1=
EXTT2=
EXTT3=
EXTT4=
EXTT5=
EXTT6=
EXTT7=
EXTT8=
EXTT9=
EXTT10=
PLAYORDER=
